<svg width="18" height="16" viewBox="0 0 18 16" fill="none" xmlns="http://www.w3.org/2000/svg">
<path fill-rule="evenodd" clip-rule="evenodd" d="M11.4344 8.19385C11.4344 9.54897 10.3359 10.6475 8.98082 10.6475C7.6257 10.6475 6.52713 9.54897 6.52713 8.19385C6.52713 6.8388 7.6257 5.74023 8.98082 5.74023C10.3359 5.74023 11.4344 6.8388 11.4344 8.19385ZM5.26463 8.19385C5.26463 6.14137 6.92841 4.47766 8.98082 4.47766C11.0332 4.47766 12.697 6.14137 12.697 8.19385C12.697 10.2463 11.0332 11.91 8.98082 11.91C6.92841 11.91 5.26463 10.2463 5.26463 8.19385ZM16.7229 5.72887H17.9616V12.2735C17.9616 13.8094 16.7165 15.0545 15.1806 15.0545H3.334V13.8158H14.9582C15.9328 13.8158 16.7229 13.0258 16.7229 12.0511V5.72887ZM5.84964 2.84989C5.73271 2.9764 5.59095 3.07745 5.43322 3.14671C5.27548 3.21598 5.10516 3.25197 4.93289 3.25246L1.23871 3.26275V15.0545H0V3.38438C0 2.63307 0.609099 2.02404 1.36048 2.02404H4.92624L6.48333 0.309089C6.57191 0.211509 6.67997 0.133585 6.80053 0.0803469C6.92108 0.0271084 7.05147 -0.000262038 7.18326 1.89072e-06L10.9788 0.00700545C11.1085 0.00725632 11.2369 0.0342839 11.3557 0.0863979C11.4746 0.138512 11.5814 0.214591 11.6695 0.309875L13.2541 2.02404H17.9616V3.26275L13.2428 3.2481C13.0706 3.24754 12.9004 3.2115 12.7428 3.14224C12.5851 3.07298 12.4435 2.97197 12.3266 2.84553L10.8406 1.23792H7.3397L5.84964 2.84989Z" fill="#212121"/>
</svg>
